<svg xmlns="http://www.w3.org/2000/svg" width="960" height="620" viewBox="0 0 960 620" role="img" aria-label="Bounty Tournament">
  <rect width="960" height="620" fill="#101114"/>
  <rect x="34" y="34" width="892" height="552" rx="28" fill="#181a1f" stroke="#333842" stroke-width="2"/>
  <rect x="70" y="70" width="820" height="78" rx="18" fill="#20232a" stroke="#333842"/>
  <circle cx="112" cy="109" r="20" fill="#f59e0b" opacity=".22"/>
  <text x="150" y="103" fill="#f8fafc" font-size="24" font-weight="800">Bounty Tournament</text>
  <text x="150" y="130" fill="#a7b0be" font-size="15">Knockout claims and bounty pool tracking</text>
  <rect x="70" y="178" width="510" height="94" rx="20" fill="#0b0c0f" stroke="#333842"/>
  <text x="105" y="236" fill="#f8fafc" font-size="58" font-family="ui-monospace, Menlo, monospace" font-weight="900">18:42</text>
  <text x="370" y="216" fill="#a7b0be" font-size="16" font-weight="700">Level 4</text>
  <text x="370" y="244" fill="#f59e0b" font-size="25" font-weight="900">300 / 600</text>
  <rect x="610" y="178" width="280" height="94" rx="20" fill="#20232a" stroke="#333842"/>
  <text x="638" y="216" fill="#a7b0be" font-size="15">Next blinds</text>
  <text x="638" y="248" fill="#f8fafc" font-size="31" font-weight="900">500 / 1K</text>
  <rect x="70" y="300" width="820" height="34" rx="8" fill="#22262e"/><text x="92" y="323" fill="#f1f5f9" font-size="17" font-weight="700">Bounty pool  $360</text><rect x="70" y="346" width="820" height="34" rx="8" fill="#f6d36d"/><text x="92" y="369" fill="#2b2107" font-size="17" font-weight="700">Claimed  $120</text><rect x="70" y="392" width="820" height="34" rx="8" fill="#22262e"/><text x="92" y="415" fill="#f1f5f9" font-size="17" font-weight="700">Remaining  $240</text><rect x="70" y="438" width="820" height="34" rx="8" fill="#22262e"/><text x="92" y="461" fill="#f1f5f9" font-size="17" font-weight="700">Next reveal  Final 8</text>
  <rect x="70" y="532" width="250" height="30" rx="8" fill="#f59e0b" opacity=".16"/>
  <text x="92" y="553" fill="#f59e0b" font-size="15" font-weight="800">Browser based, no download</text>
</svg>