<svg xmlns="http://www.w3.org/2000/svg" viewBox="0 0 512 512" role="img" aria-label="The Poker Planner app icon">
  <defs>
    <linearGradient id="bg" x1="0" y1="0" x2="1" y2="1"><stop offset="0" stop-color="#0E1113"/><stop offset="1" stop-color="#07110f"/></linearGradient>
    <filter id="glow" x="-30%" y="-30%" width="160%" height="160%"><feDropShadow dx="0" dy="0" stdDeviation="12" flood-color="#149B91" flood-opacity=".55"/></filter>
  </defs>
  <rect width="512" height="512" rx="104" fill="url(#bg)"/>
  <rect x="18" y="18" width="476" height="476" rx="92" fill="none" stroke="#149B91" stroke-width="6" opacity=".7"/>
  <g transform="translate(56 56) scale(.78125)" filter="url(#glow)">
    <svg viewBox="0 0 512 512" width="512" height="512">
      <circle cx="256" cy="256" r="226" fill="#050708" stroke="#149B91" stroke-width="10"/>
      <circle cx="256" cy="256" r="190" fill="#050708" stroke="#111719" stroke-width="18"/>
      <g stroke="#0E1113" stroke-width="18" stroke-linejoin="round">
        <path fill="#149B91" d="M217 31a226 226 0 0 1 78 0l-13 74a151 151 0 0 0-52 0z"/>
        <path fill="#fff" d="M350 56a226 226 0 0 1 68 40l-49 57a151 151 0 0 0-45-27z"/>
        <path fill="#149B91" d="M455 176a226 226 0 0 1 0 80l-75-10a151 151 0 0 0 0-54z"/>
        <path fill="#fff" d="M418 416a226 226 0 0 1-68 40l-26-70a151 151 0 0 0 45-27z"/>
        <path fill="#149B91" d="M295 481a226 226 0 0 1-78 0l13-74a151 151 0 0 0 52 0z"/>
        <path fill="#fff" d="M162 456a226 226 0 0 1-68-40l49-57a151 151 0 0 0 45 27z"/>
        <path fill="#149B91" d="M57 336a226 226 0 0 1 0-80l75 10a151 151 0 0 0 0 54z"/>
        <path fill="#fff" d="M94 96a226 226 0 0 1 68-40l26 70a151 151 0 0 0-45 27z"/>
      </g>
      <circle cx="256" cy="256" r="145" fill="#050708" stroke="#149B91" stroke-width="9"/>
      <path fill="#149B91" d="M249 147h-74c-48 0-82 32-82 80s34 80 82 80h28v-52h-29c-18 0-31-11-31-28s13-28 31-28h24v168h51z"/>
      <path fill="#149B91" d="M198 147h51v220h-51z" opacity=".96"/>
      <path fill="#fff" d="M263 147h79c47 0 78 30 78 75s-31 75-78 75h-28v70h-51zm51 51v48h29c16 0 26-9 26-24s-10-24-26-24z"/>
    </svg>
  </g>
</svg>
